<svg id="Layer_1" data-name="Layer 1" xmlns="http://www.w3.org/2000/svg" viewBox="0 0 310.22 159.01"><defs><style>.cls-1{fill:#4d4d4d;}</style></defs><title>responsive_icon</title><path class="cls-1" d="M391.91,356.43H340.28a1.63,1.63,0,0,1-1.84-1.85V247.65a1.63,1.63,0,0,1,1.84-1.85h77.44a1.63,1.63,0,0,1,1.84,1.85v18.43a1.85,1.85,0,1,0,3.69,0V247.65a5.51,5.51,0,0,0-5.53-5.54H340.28a5.51,5.51,0,0,0-5.53,5.54V354.58a5.5,5.5,0,0,0,5.53,5.53h51.63a1.84,1.84,0,0,0,0-3.68Z" transform="translate(-142.53 -201.1)"/><path class="cls-1" d="M451.14,276.92a5.34,5.34,0,0,0-3.92-1.62H406.66a5.53,5.53,0,0,0-5.54,5.53v73.75a5.51,5.51,0,0,0,5.54,5.53h40.56a5.5,5.5,0,0,0,5.53-5.53V280.83A5.34,5.34,0,0,0,451.14,276.92Zm-2.08,77.66a1.63,1.63,0,0,1-1.84,1.85H406.66a1.63,1.63,0,0,1-1.85-1.85V280.83a1.63,1.63,0,0,1,1.85-1.84h40.56a1.63,1.63,0,0,1,1.84,1.84Z" transform="translate(-142.53 -201.1)"/><path class="cls-1" d="M376.35,342.71a3.91,3.91,0,0,0,0,5.31,3.92,3.92,0,0,0,5.3,0,3.69,3.69,0,0,0-2.65-6.34A3.58,3.58,0,0,0,376.35,342.71Z" transform="translate(-142.53 -201.1)"/><path class="cls-1" d="M426.94,341.68a3.58,3.58,0,0,0-2.65,1,3.91,3.91,0,0,0,0,5.31,3.92,3.92,0,0,0,5.3,0,3.69,3.69,0,0,0-2.65-6.34Z" transform="translate(-142.53 -201.1)"/><path class="cls-1" d="M323.68,355.84h-170a7.13,7.13,0,0,1-7.13-7.13V212.23a7.13,7.13,0,0,1,7.13-7.13H365.5a7.13,7.13,0,0,1,7.13,7.13v17.19a2,2,0,0,0,4,0V212.23A11.13,11.13,0,0,0,365.5,201.1H153.66a11.13,11.13,0,0,0-11.13,11.13V348.71a11.13,11.13,0,0,0,11.13,11.13h170a2,2,0,0,0,2-2h0A2,2,0,0,0,323.68,355.84Z" transform="translate(-142.53 -201.1)"/><circle class="cls-1" cx="117.05" cy="142.58" r="3.83"/></svg>